<svg width="1600" height="900" viewBox="0 0 1600 900" fill="none" xmlns="http://www.w3.org/2000/svg">
  <rect width="1600" height="900" fill="#120C0D" />
  <rect width="1600" height="900" fill="url(#bg)" />
  <circle cx="1270" cy="180" r="240" fill="url(#glowA)" />
  <circle cx="340" cy="760" r="280" fill="url(#glowB)" />
  <rect x="108" y="108" width="1384" height="684" rx="36" fill="rgba(255,255,255,0.03)" stroke="rgba(255,255,255,0.12)" />
  <rect x="172" y="182" width="450" height="12" rx="6" fill="#EAC2D1" fill-opacity="0.75" />
  <rect x="172" y="230" width="320" height="10" rx="5" fill="white" fill-opacity="0.28" />
  <rect x="172" y="438" width="528" height="148" rx="28" fill="rgba(255,255,255,0.05)" stroke="rgba(255,255,255,0.1)" />
  <rect x="744" y="192" width="490" height="334" rx="32" fill="rgba(255,255,255,0.04)" stroke="rgba(255,255,255,0.12)" />
  <rect x="784" y="240" width="206" height="12" rx="6" fill="#F2D7E1" fill-opacity="0.7" />
  <rect x="784" y="280" width="278" height="10" rx="5" fill="white" fill-opacity="0.2" />
  <rect x="784" y="352" width="130" height="130" rx="26" fill="#D05B84" fill-opacity="0.12" />
  <rect x="932" y="352" width="130" height="130" rx="26" fill="#E7AAC0" fill-opacity="0.16" />
  <rect x="1080" y="352" width="114" height="130" rx="26" fill="rgba(255,255,255,0.08)" />
  <text x="172" y="348" fill="#F8F3F5" font-family="Arial, sans-serif" font-size="98" font-weight="700">FluencyOS</text>
  <text x="174" y="640" fill="rgba(248,243,245,0.78)" font-family="Arial, sans-serif" font-size="34">
    SaaS de idiomas com IA, rotina de estudo e interface
  </text>
  <text x="174" y="688" fill="rgba(248,243,245,0.78)" font-family="Arial, sans-serif" font-size="34">
    pensada para clareza, progresso e recorrencia.
  </text>
  <text x="174" y="168" fill="rgba(248,243,245,0.55)" font-family="Courier New, monospace" font-size="24" letter-spacing="6">
    PRODUCT SYSTEM / AI LEARNING
  </text>
  <text x="782" y="602" fill="rgba(248,243,245,0.65)" font-family="Courier New, monospace" font-size="22" letter-spacing="5">
    NEXT.JS  TYPESCRIPT  SUPABASE  OPENAI API
  </text>
  <defs>
    <linearGradient id="bg" x1="136" y1="96" x2="1412" y2="826" gradientUnits="userSpaceOnUse">
      <stop stop-color="#1A1013" />
      <stop offset="0.5" stop-color="#281219" />
      <stop offset="1" stop-color="#100A0B" />
    </linearGradient>
    <radialGradient id="glowA" cx="0" cy="0" r="1" gradientUnits="userSpaceOnUse" gradientTransform="translate(1270 180) rotate(90) scale(240)">
      <stop stop-color="#D05B84" stop-opacity="0.34" />
      <stop offset="1" stop-color="#D05B84" stop-opacity="0" />
    </radialGradient>
    <radialGradient id="glowB" cx="0" cy="0" r="1" gradientUnits="userSpaceOnUse" gradientTransform="translate(340 760) rotate(90) scale(280)">
      <stop stop-color="#7E2E4C" stop-opacity="0.38" />
      <stop offset="1" stop-color="#7E2E4C" stop-opacity="0" />
    </radialGradient>
  </defs>
</svg>
